<?xml version="1.0" encoding="UTF-8"?>
<svg width="105.154291px" height="30px" viewBox="0 0 105.154291 30" version="1.1" xmlns="http://www.w3.org/2000/svg" xmlns:xlink="http://www.w3.org/1999/xlink">
    <title>8D53F06A-DDFF-406E-8D59-9EC6258E88B2</title>
    <g id="Page-1" stroke="none" stroke-width="1" fill="none" fill-rule="evenodd">
        <g id="00.1-App_RA-login" transform="translate(-135.000000, -696.000000)" fill="#6B6567" fill-rule="nonzero">
            <g id="logo_hachette" transform="translate(135.000000, 696.000000)">
                <path d="M-1.86788311e-15,4.94742376 C0.0788643533,4.94742376 0.16298633,4.96319664 0.241850683,4.96319664 C3.04942166,4.96319664 5.85699264,4.96319664 8.66456362,4.96319664 L8.92218717,4.96319664 L8.92218717,12.3449001 L17.0136698,12.3449001 L17.0136698,13.8590957 L7.41324921,13.8590957 L7.41324921,6.50893796 L1.51945321,6.50893796 L1.51945321,28.1125131 L9.22187171,28.1125131 L9.22187171,29.6477392 L8.99053628,29.6477392 C6.08307045,29.6477392 3.17560463,29.6477392 0.262881178,29.6477392 C0.173501577,29.6477392 0.0893796004,29.6582545 -1.86788311e-15,29.6582545 L-1.86788311e-15,4.94742376 L-1.86788311e-15,4.94742376 Z" id="Path"></path>
                <path d="M64.4532072,0 L64.4532072,6.75604627 C64.5320715,6.67192429 64.5846477,6.62460568 64.6319664,6.57202944 C65.1945321,5.99369085 65.8780231,5.64143007 66.661409,5.47318612 C67.6708728,5.25236593 68.6645636,5.30494217 69.6319664,5.68349106 C71.1146162,6.26708728 72.0136698,7.60778128 72.0189274,9.25341746 C72.0241851,11.6351209 72.0189274,14.0115668 72.0189274,16.3932702 C72.0189274,16.4458465 72.0136698,16.5036803 72.0084122,16.5667718 L71.1461619,16.5667718 L71.1461619,16.340694 C71.1461619,14.0168244 71.1461619,11.6929548 71.1461619,9.36908517 C71.1461619,8.37539432 70.8359621,7.51314406 70.0157729,6.88748686 C69.5320715,6.51945321 68.9747634,6.33017876 68.3806519,6.25131441 C67.6866456,6.16193481 67.0084122,6.21976866 66.3564669,6.46687697 C65.1314406,6.92954784 64.4584648,7.96004206 64.4584648,9.37960042 C64.4584648,11.6929548 64.4584648,14.0010515 64.4584648,16.3144059 L64.4584648,16.5562566 L63.5909569,16.5562566 L63.5909569,0 L64.4584648,0 L64.4532072,0 Z" id="Path"></path>
                <path d="M31.6982124,0 C31.6982124,0.730809674 31.6929548,1.46161935 31.6929548,2.19242902 C31.6929548,3.63301788 31.6929548,5.07360673 31.6929548,6.51945321 L31.6929548,6.72450053 C31.7192429,6.72450053 31.7350158,6.72450053 31.7402734,6.7192429 C32.8128286,5.5573081 34.1692955,5.24185068 35.6782334,5.39957939 C36.7087277,5.50473186 37.6130389,5.90956887 38.3123028,6.69295478 C38.9747634,7.43953733 39.2534175,8.33333333 39.2534175,9.31650894 C39.2534175,11.6088328 39.2534175,13.9011567 39.2534175,16.1934805 L39.2534175,16.5772871 L38.3806519,16.5772871 L38.3806519,16.3459516 C38.3806519,14.0168244 38.3806519,11.6876972 38.3806519,9.35856993 C38.3806519,7.97055731 37.681388,6.92429022 36.466877,6.47739222 C35.7413249,6.20925342 34.9947424,6.16193481 34.2376446,6.30389064 C33.6067298,6.41955836 33.0336488,6.66666667 32.5657203,7.11882229 C31.9032597,7.75499474 31.6876972,8.56466877 31.6876972,9.45320715 C31.6876972,11.745531 31.6876972,14.0378549 31.6876972,16.3301788 L31.6876972,16.5720294 L30.8201893,16.5720294 L30.8201893,16.382755 C30.8201893,10.9726604 30.8201893,5.56782334 30.8201893,0.157728707 C30.8201893,0.105152471 30.8201893,0.0578338591 30.8254469,0.00525762355 L31.6929548,0.00525762355 L31.6982124,0 Z" id="Path"></path>
                <path d="M58.5594111,30 C58.5594111,28.8958991 58.5594111,27.7970557 58.5594111,26.6929548 C58.5594111,24.6109359 58.5594111,22.5236593 58.5594111,20.4416404 L58.5594111,20.1997897 L64.2954784,20.1997897 L64.2954784,21.2723449 L59.6687697,21.2723449 L59.6687697,24.3217666 L63.9537329,24.3217666 L63.9537329,25.4100946 L59.6687697,25.4100946 L59.6687697,28.8906414 L64.5320715,28.8906414 L64.5320715,30 L58.5646688,30 L58.5594111,30 Z" id="Path"></path>
                <path d="M43.93796,30 C43.7802313,29.4847529 43.6277603,28.9642482 43.4647739,28.4490011 C42.6077813,25.7308097 41.745531,23.0178759 40.8885384,20.2996845 C40.8727655,20.2523659 40.8622503,20.2050473 40.8464774,20.1366982 C41.1724501,20.1366982 41.4879075,20.1314406 41.7981073,20.1419558 C41.8454259,20.1419558 41.9032597,20.2313354 41.9242902,20.2944269 C42.2134595,21.1514196 42.4921136,22.0136698 42.7760252,22.8759201 C43.3228181,24.5425868 43.8696109,26.2092534 44.4216614,27.8759201 C44.4374343,27.9232387 44.4584648,27.9652997 44.4900105,28.0389064 C44.5899054,27.7549947 44.6740273,27.4973712 44.7634069,27.2450053 C45.5415352,24.9211356 46.3249211,22.5920084 47.0977918,20.2628812 C47.1451104,20.1209253 47.2082019,20.0788644 47.3501577,20.084122 C47.6182965,20.0946372 47.891693,20.084122 48.1913775,20.084122 C48.1650894,20.1735016 48.1545741,20.2365931 48.1335436,20.2996845 C47.108307,23.4700315 46.0830705,26.6456362 45.0525762,29.8159832 C45.0315457,29.873817 45.0210305,29.9369085 45.0052576,30 L43.9484753,30 L43.93796,30 Z" id="Path"></path>
                <polygon id="Path" points="30.7886435 30 30.7886435 20.1997897 31.8769716 20.1997897 31.8769716 28.8906414 35.851735 28.8906414 35.851735 30 30.7886435 30"></polygon>
                <path d="M37.9705573,30 C37.9705573,29.9369085 37.9600421,29.873817 37.9600421,29.8107256 C37.9600421,26.6771819 37.9600421,23.5383807 37.9600421,20.404837 L37.9600421,20.1997897 L39.0588854,20.1997897 L39.0588854,20.4206099 C39.0588854,23.5226078 39.0588854,26.6298633 39.0588854,29.7318612 C39.0588854,29.8212408 39.064143,29.9053628 39.0694006,29.9947424 L37.9758149,29.9947424 L37.9705573,30 Z" id="Path"></path>
                <polygon id="Path" points="24.4216614 29.637224 15.4942166 29.637224 15.4942166 22.2712934 7.39747634 22.2712934 7.39747634 20.7465825 17.0031546 20.7465825 17.0031546 28.1019979 22.8969506 28.1019979 22.8969506 6.49316509 15.1945321 6.49316509 15.1945321 4.97896951 24.4216614 4.97896951"></polygon>
                <path d="M43.1388013,7.723449 L42.276551,7.723449 C42.2660358,7.10304942 42.4395373,6.5615142 42.8601472,6.10935857 C43.2281809,5.7150368 43.7066246,5.52576236 44.2166141,5.40483701 C45.0946372,5.20504732 45.9884332,5.18401682 46.8822292,5.23133544 C47.5920084,5.2681388 48.2860147,5.37329127 48.93796,5.66771819 C49.5793901,5.95688749 50.0736067,6.38801262 50.2891693,7.08201893 C50.3470032,7.27129338 50.3838065,7.47634069 50.3838065,7.67613039 C50.3890641,10.5835962 50.3838065,13.4963197 50.3838065,16.4037855 C50.3838065,16.4511041 50.3838065,16.5036803 50.3732913,16.5667718 L49.5162986,16.5667718 L49.5162986,15.2260778 C49.4216614,15.3049422 49.3743428,15.3417455 49.3217666,15.3838065 C48.4069401,16.1303891 47.3817035,16.6508938 46.1934805,16.787592 C44.915878,16.9295478 43.7486856,16.661409 42.7707676,15.7833859 C41.1671924,14.3375394 41.6140904,11.9610936 42.7181914,11.0094637 C43.2649842,10.5362776 43.9116719,10.2891693 44.6109359,10.1735016 C45.7097792,9.99474238 46.8086225,10.0893796 47.8969506,10.2839117 C47.9074658,10.2839117 47.9179811,10.2944269 47.9495268,10.3154574 L47.807571,11.1303891 C47.3291272,11.0778128 46.8664564,11.0147213 46.4037855,10.9831756 C45.6572029,10.9305994 44.9263933,10.9674027 44.1955836,11.1724501 C42.402734,11.6824395 42.1398528,14.0536278 43.338591,15.1209253 C44.1272345,15.8201893 45.0525762,16.0462671 46.0778128,15.9253417 C47.3343849,15.7781283 48.3438486,15.1419558 49.2429022,14.2902208 C49.4426919,14.1009464 49.5215563,13.9116719 49.5215563,13.6382755 C49.5057834,11.7297581 49.5005258,9.8212408 49.5215563,7.91272345 C49.5268139,7.1871714 49.190326,6.7402734 48.5594111,6.46161935 C47.9442692,6.19348055 47.2870662,6.11461619 46.6246057,6.09884332 C45.8254469,6.07781283 45.0262881,6.08832808 44.2481598,6.30914826 C44.1167192,6.34595163 43.9852787,6.39852787 43.8643533,6.46161935 C43.4542587,6.66140904 43.212408,6.9873817 43.170347,7.45005258 C43.1598318,7.53943218 43.1493165,7.62355415 43.1388013,7.72870662 L43.1388013,7.723449 Z" id="Path"></path>
                <path d="M105.131441,11.1461619 L99.0799159,11.1461619 L99.0799159,10.2839117 L104.263933,10.2839117 C104.295478,9.46898002 104.316509,8.68033649 103.948475,7.94426919 C103.664564,7.37644585 103.249211,6.94532072 102.67613,6.68243954 C100.835962,5.83070452 98.7329127,6.51419558 97.8706625,8.34384858 C97.0031546,10.1892744 96.9768665,12.0977918 97.8864353,13.9432177 C98.9484753,16.0778128 101.829653,16.5825447 103.564669,14.9842271 C103.769716,14.7949527 103.93796,14.5636172 104.143007,14.3270242 L104.863302,14.7634069 C104.621451,15.168244 104.327024,15.4994742 103.980021,15.7886435 C102.297581,17.1819138 98.7171399,17.4710831 97.0662461,14.2954784 C96.4826498,13.170347 96.3196635,11.955836 96.3880126,10.7045216 C96.4405889,9.70031546 96.6508938,8.73817035 97.1293375,7.83911672 C98.0073607,6.17770768 99.6424816,5.31545741 101.514196,5.50473186 C102.176656,5.57308097 102.807571,5.72555205 103.375394,6.07255521 C104.44795,6.72975815 105.005258,7.723449 105.120925,8.94847529 C105.189274,9.66876972 105.131441,10.404837 105.131441,11.1566772 L105.131441,11.1461619 Z" id="Path"></path>
                <path d="M82.4395373,10.2891693 C82.4395373,9.58990536 82.4921136,8.92744479 82.2555205,8.29127234 C81.9295478,7.39221872 81.3301788,6.78759201 80.4100946,6.52471083 C79.6424816,6.30389064 78.8696109,6.27760252 78.1019979,6.50893796 C77.1345952,6.79810726 76.4353312,7.43427971 76.0252366,8.33859096 C75.1892744,10.2050473 75.1366982,12.108307 76.0567823,13.9589905 C77.1188223,16.0830705 80.0105152,16.5720294 81.7402734,14.9631966 C81.9400631,14.7739222 82.1030494,14.5478444 82.3028391,14.3217666 L83.0336488,14.7634069 C82.9232387,14.9211356 82.8233438,15.0736067 82.7129338,15.2103049 C81.9663512,16.1251314 80.9831756,16.5878023 79.831756,16.7245005 C78.4279706,16.8927445 77.1819138,16.5299685 76.1514196,15.5415352 C75.3890641,14.8054679 74.9369085,13.8906414 74.721346,12.8654048 C74.3901157,11.2828601 74.4637224,9.71608833 75.1104101,8.21766562 C75.6992639,6.84542587 76.6876972,5.90431125 78.1808623,5.58885384 C79.2534175,5.3575184 80.320715,5.43638275 81.3091483,5.94637224 C82.6235542,6.61934805 83.212408,7.76550999 83.3017876,9.1955836 C83.3438486,9.81072555 83.3070452,10.4311251 83.3070452,11.0462671 C83.3070452,11.0778128 83.3070452,11.1041009 83.29653,11.1461619 L77.23449,11.1461619 L77.23449,10.2996845 L82.4290221,10.2996845 L82.4395373,10.2891693 Z" id="Path"></path>
                <path d="M60.893796,14.2376446 L61.6298633,14.6635121 C61.5667718,14.7686646 61.5141956,14.8633018 61.4511041,14.9526814 C60.6834911,16.0462671 59.6109359,16.6035752 58.3070452,16.7402734 C56.4931651,16.9242902 55.168244,16.1041009 54.2008412,14.6424816 C53.29653,13.2754995 53.0336488,11.7402734 53.1808623,10.126183 C53.2807571,9.03785489 53.5856993,8.0126183 54.1798107,7.08727655 C54.873817,6.0042061 55.809674,5.23659306 57.108307,5.01051525 C57.9442692,4.86330179 58.7802313,4.93165089 59.5846477,5.22607781 C60.5783386,5.58885384 61.0672976,6.39327024 61.4143007,7.35015773 L60.6098843,7.66035752 C60.5573081,7.5446898 60.5099895,7.44479495 60.4731861,7.33964248 C60.1209253,6.40904311 59.4321767,5.96214511 58.4595163,5.85173502 C56.8401682,5.66246057 55.6256572,6.30389064 54.8685594,7.68664564 C53.6961094,9.81598318 53.6803365,11.997897 54.9211356,14.1219769 C55.4521556,15.0368034 56.2407992,15.7097792 57.3291272,15.8464774 C58.7697161,16.0252366 59.9894848,15.5888538 60.8254469,14.3270242 C60.8412198,14.3059937 60.851735,14.2849632 60.8675079,14.2639327 C60.8675079,14.2639327 60.8780231,14.2586751 60.9043113,14.2376446 L60.893796,14.2376446 Z" id="Path"></path>
                <path d="M92.23449,6.30389064 L90.1577287,6.30389064 L90.1577287,5.43112513 L92.23449,5.43112513 L92.23449,1.45636172 L93.1125131,1.45636172 L93.1125131,5.42060988 L95.1945321,5.42060988 L95.1945321,6.29863302 L93.1177708,6.29863302 L93.1177708,14.1430074 C93.1177708,14.9684543 93.5488959,15.53102 94.3480547,15.7518402 C94.8264984,15.8832808 95.3049422,15.8569926 95.7833859,15.7360673 C95.8359621,15.7202944 95.8885384,15.7097792 95.9621451,15.6887487 C96.0515247,15.9621451 96.1356467,16.2302839 96.2302839,16.5352261 C95.9674027,16.5878023 95.7255521,16.6508938 95.4784437,16.6824395 C94.7108307,16.7770768 93.980021,16.6719243 93.3280757,16.2355415 C92.6077813,15.7623554 92.23449,15.0998948 92.23449,14.2271293 C92.2397476,11.6771819 92.23449,9.12723449 92.23449,6.57728707 L92.23449,6.30914826 L92.23449,6.30389064 Z" id="Path"></path>
                <path d="M89.9947424,15.6887487 L90.2628812,16.5299685 C90.0105152,16.5825447 89.7686646,16.6508938 89.5215563,16.6824395 C88.6014721,16.7928496 87.7497371,16.6246057 87.0399579,15.9884332 C86.5404837,15.5467928 86.2776025,14.9894848 86.2776025,14.3059937 C86.2776025,11.7245005 86.2776025,9.14300736 86.2776025,6.5615142 L86.2776025,6.30389064 L84.1955836,6.30389064 L84.1955836,5.43638275 L86.2776025,5.43638275 L86.2776025,1.4511041 L87.1556257,1.4511041 L87.1556257,5.43112513 L89.2376446,5.43112513 L89.2376446,6.29863302 L87.1608833,6.29863302 L87.1608833,6.55625657 C87.1608833,9.11671924 87.1661409,11.6824395 87.1608833,14.2429022 C87.1608833,14.8159832 87.4132492,15.2155626 87.8706625,15.5099895 C88.4227129,15.8622503 89.0273396,15.8990536 89.6529968,15.7728707 C89.7634069,15.7518402 89.873817,15.7202944 90.0105152,15.6887487 L89.9947424,15.6887487 Z" id="Path"></path>
                <path d="M69.6740273,29.0588854 C69.831756,28.6330179 69.9789695,28.2597266 70.1156677,27.8864353 C70.4731861,26.9348055 70.8359621,25.977918 71.1882229,25.0210305 C71.2460568,24.8633018 71.3196635,24.8107256 71.4879075,24.8212408 C71.7139853,24.8370137 71.9400631,24.8212408 72.1819138,24.8212408 L72.1819138,29.873817 L71.5667718,29.873817 L71.5667718,25.7886435 L71.5247108,25.7781283 C71.508938,25.8149317 71.4826498,25.851735 71.4721346,25.893796 C70.9936909,27.1661409 70.5152471,28.4384858 70.042061,29.7108307 C69.9947424,29.8370137 69.9369085,29.9001052 69.7896951,29.8948475 C69.3953733,29.8843323 69.3953733,29.8948475 69.2586751,29.5215563 C68.8012618,28.3070452 68.3491062,27.0925342 67.891693,25.8832808 C67.8759201,25.8412198 67.8601472,25.8044164 67.807571,25.767613 L67.807571,29.8790747 L67.1766562,29.8790747 L67.1766562,24.831756 C67.4553102,24.831756 67.7287066,24.8212408 68.002103,24.8370137 C68.0546793,24.8370137 68.1230284,24.9316509 68.1440589,24.9947424 C68.617245,26.2407992 69.0851735,27.4921136 69.553102,28.743428 C69.5899054,28.8328076 69.6214511,28.9274448 69.6740273,29.064143 L69.6740273,29.0588854 Z" id="Path"></path>
                <path d="M76.3196635,28.7171399 C76.2460568,29.3901157 75.7202944,29.8790747 75.0157729,29.9631966 C73.93796,30.0893796 73.1756046,29.4847529 73.0389064,28.3911672 C72.9547844,27.7076761 73.086225,27.0872766 73.5909569,26.5825447 C74.232387,25.9411146 75.6887487,25.8727655 76.1987382,27.108307 C76.3459516,27.4605678 76.4143007,27.8286015 76.3880126,28.2334385 L73.6908517,28.2334385 C73.5594111,28.785489 73.9905363,29.3480547 74.5899054,29.426919 C75.1209253,29.4952681 75.5888538,29.3007361 75.7202944,28.8065195 C75.7308097,28.7697161 75.7991588,28.7276551 75.8412198,28.7223975 C75.9989485,28.7118822 76.1566772,28.7223975 76.3196635,28.7223975 L76.3196635,28.7171399 Z M73.6750789,27.6866456 L75.7360673,27.6866456 C75.7255521,27.0977918 75.2471083,26.6561514 74.6582545,26.6719243 C74.1114616,26.6876972 73.659306,27.1451104 73.6750789,27.6866456 L73.6750789,27.6866456 Z" id="Shape"></path>
                <path d="M89.4216614,28.0546793 C89.4111462,28.1913775 89.4058885,28.3228181 89.384858,28.4542587 C89.2797056,29.232387 88.7749737,29.7896951 88.0546793,29.9369085 C87.2397476,30.0998948 86.4931651,29.8212408 86.1409043,29.1745531 C85.7255521,28.4174553 85.7360673,27.6340694 86.1724501,26.8874869 C86.5299685,26.2723449 87.2870662,26.0147213 88.0809674,26.1829653 C88.785489,26.3301788 89.2744479,26.8769716 89.384858,27.6445846 C89.4058885,27.7812829 89.4111462,27.9179811 89.4216614,28.0546793 L89.4216614,28.0546793 Z M86.4458465,28.0704522 C86.5352261,28.3491062 86.5825447,28.6540484 86.7192429,28.9011567 C87.1240799,29.6319664 88.1808623,29.6109359 88.575184,28.8801262 C88.8590957,28.3491062 88.8590957,27.7917981 88.5856993,27.2502629 C88.3964248,26.871714 88.0704522,26.6771819 87.639327,26.6719243 C87.2134595,26.6719243 86.8769716,26.8611987 86.6929548,27.2450053 C86.5720294,27.4921136 86.5299685,27.7760252 86.4458465,28.0704522 Z" id="Shape"></path>
                <path d="M85.3680336,28.5383807 C85.3417455,29.2849632 84.7844374,29.8685594 84.0325973,29.957939 C82.9337539,30.0893796 82.1451104,29.4479495 82.0715037,28.3491062 C82.0504732,28.0704522 82.0662461,27.7812829 82.1188223,27.5078864 C82.3501577,26.3564669 83.4858044,25.8044164 84.5899054,26.2881178 C84.9894848,26.4616193 85.2313354,26.7613039 85.3312303,27.1819138 C85.3470032,27.2397476 85.3522608,27.3028391 85.362776,27.3974763 C85.1629863,27.3974763 84.9789695,27.3974763 84.7949527,27.3974763 C84.7634069,27.3974763 84.721346,27.3343849 84.7108307,27.2975815 C84.5899054,26.9295478 84.3375394,26.7192429 83.9537329,26.6876972 C83.533123,26.6508938 83.1440589,26.7507886 82.9284963,27.1451104 C82.6025237,27.7392219 82.5867508,28.3648791 82.9127234,28.9695058 C83.128286,29.3690852 83.5120925,29.4900105 83.9432177,29.4321767 C84.3638275,29.3743428 84.6267087,29.1219769 84.7266036,28.7171399 C84.7634069,28.5699264 84.8264984,28.5383807 84.957939,28.5436383 C85.0946372,28.5541535 85.2313354,28.5436383 85.3680336,28.5436383 L85.3680336,28.5383807 Z" id="Path"></path>
                <path d="M78.3701367,28.3806519 C78.1335436,28.7276551 77.9074658,29.0588854 77.6866456,29.3953733 C77.4588153,29.7353663 77.1398528,29.8983526 76.7297581,29.8843323 C76.7297581,29.8843323 76.6824395,29.8790747 76.6298633,29.8685594 C76.7560463,29.6845426 76.8769716,29.5162986 76.9926393,29.3533123 C77.2975815,28.9274448 77.597266,28.5015773 77.9022082,28.0809674 C77.9705573,27.9863302 77.9705573,27.9284963 77.9022082,27.8391167 C77.5131441,27.3133544 77.1293375,26.787592 76.7139853,26.2197687 C76.9821241,26.2197687 77.2187171,26.214511 77.4500526,26.2250263 C77.4973712,26.2250263 77.5446898,26.2933754 77.5814932,26.3459516 C77.807571,26.6719243 78.0283912,26.997897 78.254469,27.3291272 C78.2912723,27.3817035 78.3280757,27.4290221 78.3753943,27.4921136 C78.6435331,27.1135647 78.9064143,26.7507886 79.1587802,26.382755 C79.2429022,26.2618297 79.3270242,26.1987382 79.4794953,26.214511 C79.637224,26.2302839 79.8002103,26.214511 79.9947424,26.214511 C79.9474238,26.2881178 79.9211356,26.3354364 79.8895899,26.3774974 C79.553102,26.8243954 79.2271293,27.2818086 78.8801262,27.7181914 C78.7644585,27.8654048 78.7749737,27.9600421 78.8801262,28.1019979 C79.2744479,28.6330179 79.6529968,29.1745531 80.0368034,29.7108307 C80.0683491,29.7581493 80.0998948,29.8054679 80.1524711,29.8843323 C79.8895899,29.8843323 79.6582545,29.8895899 79.4216614,29.8790747 C79.3743428,29.8790747 79.3270242,29.8054679 79.2902208,29.7581493 C79.0168244,29.3585699 78.7486856,28.9537329 78.4805468,28.5541535 C78.4437434,28.5015773 78.4069401,28.4542587 78.3596215,28.3859096 L78.3701367,28.3806519 Z" id="Path"></path>
                <polygon id="Path" points="81.3091483 29.8790747 80.7255521 29.8790747 80.7255521 26.2302839 81.3091483 26.2302839"></polygon>
                <path d="M75.6203996,24.7055731 C75.2996845,25.0525762 75.0315457,25.3785489 74.7266036,25.6624606 C74.6267087,25.7518402 74.426919,25.7255521 74.2691903,25.7518402 L74.2376446,25.7045216 C74.3690852,25.4837014 74.5215563,25.2681388 74.6319664,25.0315457 C74.7528917,24.7686646 74.9263933,24.6529968 75.2155626,24.7003155 C75.3312303,24.721346 75.4521556,24.7003155 75.6203996,24.7003155 L75.6203996,24.7055731 Z" id="Path"></path>
                <polygon id="Path" points="80.7308097 25.5573081 80.7308097 24.831756 81.3144059 24.831756 81.3144059 25.5573081"></polygon>
                <path d="M49.721346,30 C49.721346,26.9242902 49.721346,23.8433228 49.721346,20.767613 C49.721346,20.5835962 49.721346,20.404837 49.721346,20.1840168 L49.9474238,20.1840168 C51.1934805,20.1840168 52.4395373,20.1840168 53.6855941,20.1840168 C54.9106204,20.1840168 55.8464774,20.9411146 56.0830705,22.1451104 C56.1987382,22.7287066 56.1829653,23.3123028 55.9831756,23.8748686 C55.7202944,24.6267087 55.1997897,25.1209253 54.4374343,25.3575184 C54.3743428,25.3785489 54.3112513,25.3995794 54.2639327,25.4153523 C55.2260778,26.8664564 55.9411146,28.4437434 56.8349106,29.9263933 C56.8454259,29.9474238 56.8506835,29.9737119 56.8611987,29.9947424 L55.5362776,29.9947424 C55.3943218,29.7160883 55.2523659,29.4374343 55.1051525,29.1587802 C54.6477392,28.29653 54.2008412,27.4342797 53.7276551,26.5825447 C53.4805468,26.1409043 53.1230284,25.7939012 52.639327,25.6098843 C52.0504732,25.3838065 51.4405889,25.4837014 50.8254469,25.4574132 C50.8254469,25.5678233 50.8254469,25.6414301 50.8254469,25.7150368 C50.8254469,27.1398528 50.8254469,28.5699264 50.8254469,29.9947424 L49.7318612,29.9947424 L49.721346,30 Z M50.8359621,21.2828601 L50.8359621,24.3585699 C50.8675079,24.3638275 50.8885384,24.3690852 50.9095689,24.3690852 C51.8874869,24.3690852 52.8601472,24.384858 53.8380652,24.3638275 C54.3270242,24.3533123 54.7003155,24.0956887 54.9053628,23.6435331 C55.0788644,23.2702419 55.0893796,22.8759201 55.0315457,22.4763407 C54.9211356,21.6929548 54.4321767,21.2828601 53.6382755,21.2828601 C52.7760252,21.2828601 51.913775,21.2828601 51.0515247,21.2828601 L50.8359621,21.2828601 L50.8359621,21.2828601 Z" id="Shape"></path>
            </g>
        </g>
    </g>
</svg>