<?xml version="1.0" encoding="UTF-8"?>
<svg width="150px" height="135.619662px" viewBox="0 0 150 135.619662" version="1.1" xmlns="http://www.w3.org/2000/svg" xmlns:xlink="http://www.w3.org/1999/xlink">
    <title>AC73C36B-209A-466B-86F1-CB8B0F8D8693</title>
    <defs>
        <linearGradient x1="3.66%" y1="3.66%" x2="96.34%" y2="96.34%" id="linearGradient-1">
            <stop stop-color="#FFC69F" offset="30%"></stop>
            <stop stop-color="#FF5793" offset="70%"></stop>
        </linearGradient>
    </defs>
    <g id="Page-1" stroke="none" stroke-width="1" fill="none" fill-rule="evenodd">
        <g id="00.1-App_RA-login" transform="translate(-113.000000, -152.000000)" fill-rule="nonzero">
            <g id="logo_RA_vertical_color" transform="translate(113.000000, 152.000000)">
                <g id="Group" transform="translate(0.000000, 84.974725)" fill="#23294C">
                    <g transform="translate(0.000000, 26.695137)">
                        <path d="M14.2365348,20.9560746 L14.2365348,19.4003835 C14.1973157,19.3088722 14.1450235,19.217361 14.1058044,19.1258497 C13.6090291,17.8839115 13.3606415,16.5635349 13.3606415,15.1777933 C13.3606415,13.7920516 13.5959561,12.5762594 14.0273662,11.3866132 C13.7659055,10.157748 13.2429841,9.12497821 12.419383,8.3275231 C11.2166638,7.15094997 9.56946139,6.56266341 7.50392191,6.56266341 C6.405787,6.56266341 5.32072512,6.7456859 4.27488234,7.1248039 C3.21596653,7.50392191 2.14397769,8.0660624 1.04584277,8.82429841 L1.88251699,10.3799895 C2.82377549,9.73941084 3.73888792,9.24263552 4.61478124,8.90273662 C5.49067457,8.56283772 6.37964093,8.4059613 7.28168032,8.4059613 C8.77200628,8.4059613 9.93550636,8.82429841 10.7721806,9.66097263 C11.6088548,10.4976469 12.0271919,11.6219278 12.0271919,13.0338156 L12.0271919,14.4457033 C11.3343211,14.1842426 10.549939,13.9881471 9.66097263,13.8704898 C8.77200628,13.7397595 7.92225902,13.6743943 7.11173087,13.6743943 C5.71291616,13.6743943 4.47097786,13.8835628 3.41206205,14.3018999 C2.34007321,14.7202371 1.50339899,15.3085236 0.902039393,16.0667596 C0.300679798,16.8249956 -1.74167809e-15,17.727035 -1.74167809e-15,18.7859508 C-1.74167809e-15,19.7272093 0.248387659,20.5900296 0.732089942,21.3744117 C1.21579223,22.1587938 1.89559003,22.7732264 2.77148335,23.2438557 C3.64737668,23.7014119 4.61478124,23.9367265 5.69984312,23.9367265 C6.95485445,23.9367265 8.18371971,23.6752658 9.38643891,23.1392714 C10.5891581,22.61635 11.5696357,21.858114 12.3278717,20.8907094 L12.3540178,22.1195747 C12.3801638,22.4856197 12.5239672,22.8255186 12.811574,23.1523444 C13.0861077,23.4791703 13.5044448,23.6491197 14.0404393,23.6752658 C14.1319505,23.7014119 14.2626808,23.7014119 14.4326303,23.6752658 C14.6025797,23.6491197 14.8117483,23.6360467 15.0470629,23.6099006 L15.0470629,21.858114 C14.7725292,21.8319679 14.5633606,21.7535297 14.4326303,21.6227994 C14.3018999,21.478996 14.2365348,21.2698274 14.2365348,20.9691476 L14.2365348,20.9560746 Z M12.0402649,18.459125 C12.0402649,18.6682935 11.9748998,18.9166812 11.8441694,19.1912149 C11.7134391,19.4657486 11.5304166,19.7533554 11.295102,20.0540352 C10.7983267,20.6946139 10.0923828,21.2175353 9.17727035,21.6227994 C8.26215792,22.0280634 7.26860729,22.237232 6.22276451,22.237232 C5.38609029,22.237232 4.65400035,22.0672826 4.02649468,21.7143106 C3.39898902,21.3613387 2.92835977,20.9168555 2.6015339,20.367788 C2.27470804,19.8187206 2.11783162,19.2435071 2.11783162,18.6160014 C2.11783162,17.5440126 2.6015339,16.7073383 3.56893847,16.0798327 C4.53634304,15.452327 5.8044274,15.1516472 7.3862646,15.1516472 C8.18371971,15.1516472 8.98117483,15.2300854 9.76555691,15.3738888 C10.549939,15.5176922 11.308175,15.7399338 12.0402649,16.0144675 L12.0402649,18.4460519 L12.0402649,18.459125 Z" id="Shape"></path>
                        <rect id="Rectangle" x="104.244379" y="6.75875893" width="2.19626983" height="16.8380687"></rect>
                        <rect id="Rectangle" x="104.244379" y="0" width="2.19626983" height="3.22903957"></rect>
                        <path d="M27.2572773,20.5508105 C26.747429,20.9952937 26.1591424,21.3482656 25.4793446,21.5966533 C24.7995468,21.858114 24.0936029,21.9888443 23.361513,21.9888443 C22.237232,21.9888443 21.2175353,21.6881645 20.2893498,21.0737319 C19.3611644,20.4592993 18.6160014,19.6487711 18.0538609,18.6160014 C17.4917204,17.5832317 17.2171867,16.4458776 17.2171867,15.1777933 C17.2171867,13.9097089 17.4917204,12.7462088 18.0407879,11.7395851 C18.5898553,10.7329615 19.3350183,9.93550636 20.2501307,9.36029284 C21.1783162,8.78507931 22.1980129,8.49747255 23.3222939,8.49747255 C24.3550636,8.49747255 25.2963221,8.74586021 26.1460694,9.22956249 C26.9958166,9.71326477 27.6625414,10.3930626 28.1331706,11.2558829 L29.8588112,10.7068154 L29.2574516,9.59560746 L28.6168729,8.4059613 C28.3031201,8.13142758 27.9632212,7.86996688 27.5841032,7.64772529 C26.381384,6.92870838 24.9825693,6.56266341 23.4138051,6.56266341 C21.7535297,6.56266341 20.2893498,6.95485445 19.0212655,7.7261635 C17.7531811,8.49747255 16.7596305,9.54331532 16.0406136,10.8506188 C15.3346697,12.1579223 14.9686247,13.6090291 14.9686247,15.1908663 C14.9686247,16.3674394 15.1777933,17.4786474 15.5961304,18.5375632 C16.0144675,19.583406 16.6158271,20.5246645 17.3740631,21.3351926 C18.1322991,22.1457208 19.0343385,22.7862995 20.0540352,23.2438557 C21.0737319,23.7014119 22.1980129,23.9367265 23.4399512,23.9367265 C24.51194,23.9367265 25.5185637,23.753704 26.4598222,23.4007321 C27.3749346,23.0608332 28.1593167,22.5771309 28.8521876,21.9626983 C28.4338504,21.2044623 28.1723898,20.3939341 28.0678055,19.5311138 C27.87171,19.8840858 27.5971762,20.2239847 27.2311313,20.5508105 L27.2572773,20.5508105 Z" id="Path"></path>
                        <path d="M43.8731044,20.9560746 L43.8731044,19.3219453 C43.8338853,19.2435071 43.7946662,19.1650689 43.7685201,19.0866306 C43.2978909,17.8708384 43.0625763,16.589681 43.0625763,15.2823775 C43.0625763,13.9750741 43.2717448,12.6677706 43.6900819,11.4781245 C43.4416943,10.2100401 42.9056998,9.16419732 42.0559526,8.34059613 C40.8532334,7.16402301 39.206031,6.57573645 37.1404915,6.57573645 C36.0423566,6.57573645 34.9572948,6.75875893 33.911452,7.13787694 C32.8525362,7.51699495 31.7805473,8.07913544 30.6824124,8.83737145 L31.5190866,10.3930626 C32.4603451,9.75248388 33.3754576,9.25570856 34.2513509,8.91580966 C35.1272442,8.57591075 36.0162106,8.41903434 36.91825,8.41903434 C38.4085759,8.41903434 39.572076,8.83737145 40.4087502,9.67404567 C41.2454244,10.5107199 41.6637615,11.6350009 41.6637615,13.0468886 L41.6637615,14.4587764 C40.9708907,14.1973157 40.1865086,14.0012201 39.2975423,13.8835628 C38.4085759,13.7528325 37.5588287,13.6874673 36.7483005,13.6874673 C35.3494858,13.6874673 34.1075475,13.8966359 33.0486317,14.314973 C31.9766428,14.7333101 31.1399686,15.3215967 30.538609,16.0798327 C29.9372494,16.8380687 29.6365696,17.7401081 29.6365696,18.7990239 C29.6365696,19.7402824 29.8849573,20.6031027 30.3686596,21.3874847 C30.8523619,22.1718668 31.5321597,22.7862995 32.408053,23.2569287 C33.2839463,23.7144849 34.2513509,23.9497995 35.3364128,23.9497995 C36.5914241,23.9497995 37.8202893,23.6883389 39.0230085,23.1523444 C40.2257277,22.629423 41.2062053,21.871187 41.9644413,20.9037825 L41.9905874,22.1326477 C42.0167335,22.4986927 42.1605369,22.8385916 42.4481436,23.1654175 C42.7226774,23.4922433 43.1410145,23.6621928 43.6770089,23.6883389 C43.7685201,23.7144849 43.8992505,23.7144849 44.0691999,23.6883389 C44.2391494,23.6621928 44.4483179,23.6491197 44.6836326,23.6229737 L44.6836326,21.871187 C44.4090988,21.845041 44.1999303,21.7666028 44.0691999,21.6358724 C43.9384696,21.492069 43.8731044,21.2829005 43.8731044,20.9822207 L43.8731044,20.9560746 Z M41.6768346,18.459125 C41.6768346,18.6682935 41.6114694,18.9166812 41.4807391,19.1912149 C41.3500087,19.4657486 41.1669862,19.7533554 40.9316716,20.0540352 C40.4348963,20.6946139 39.7289524,21.2175353 38.81384,21.6227994 C37.8987276,22.0280634 36.9051769,22.237232 35.8593341,22.237232 C35.0226599,22.237232 34.29057,22.0672826 33.6630643,21.7143106 C33.0355587,21.3613387 32.5649294,20.9168555 32.2381035,20.367788 C31.9112777,19.8187206 31.7544013,19.2435071 31.7544013,18.6160014 C31.7544013,17.5440126 32.2381035,16.7073383 33.2055081,16.0798327 C34.1729127,15.4654 35.440997,15.1516472 37.0228342,15.1516472 C37.8202893,15.1516472 38.6177445,15.2300854 39.4021265,15.3738888 C40.1865086,15.5176922 40.9447446,15.7399338 41.6768346,16.0144675 L41.6768346,18.4460519 L41.6768346,18.459125 Z" id="Shape"></path>
                        <path d="M60.9464877,20.9560746 L60.9464877,19.3611644 C60.9203416,19.2957992 60.8811225,19.217361 60.8549765,19.1519958 C60.3582012,17.9100575 60.1098135,16.576608 60.1098135,15.1647202 C60.1098135,13.7528325 60.3974203,12.3147987 60.9464877,11.0205682 L60.9464877,1.85778997e-14 L58.7502179,1.85778997e-14 L58.7502179,10.3799895 C58.1227122,9.32107373 57.2598919,8.41903434 56.148684,7.6869444 C55.037476,6.94178142 53.7824647,6.57573645 52.38365,6.57573645 C50.893324,6.57573645 49.5729475,6.96792749 48.4094474,7.7653826 C47.2459474,8.56283772 46.3308349,9.6086805 45.6771832,10.929057 C45.0235315,12.2494335 44.6967056,13.7005404 44.6967056,15.2823775 C44.6967056,16.3935855 44.8928011,17.4786474 45.2980652,18.5114171 C45.7033293,19.5572599 46.2523967,20.4854454 46.9844867,21.2959735 C47.7035036,22.1065017 48.5532508,22.7470804 49.5337284,23.2307826 C50.514206,23.7014119 51.5861949,23.9367265 52.749695,23.9367265 C53.9785602,23.9367265 55.1682064,23.6099006 56.3055604,22.9693219 C57.4429144,22.3287432 58.3580268,21.4528499 59.0247516,20.354715 L59.0247516,22.0019174 C59.0247516,22.4071815 59.1947011,22.7862995 59.547673,23.1392714 C59.8875719,23.4791703 60.292836,23.6621928 60.7503922,23.6883389 C60.9857068,23.7144849 61.3256057,23.6883389 61.7570159,23.6229737 L61.7570159,21.871187 C61.4955552,21.845041 61.2994596,21.7666028 61.1687293,21.6227994 C61.037999,21.478996 60.9726338,21.2567544 60.9726338,20.9560746 L60.9464877,20.9560746 Z M58.7502179,17.8446923 C58.6587066,18.4068328 58.4364651,18.9297542 58.0704201,19.4526756 C57.7043751,19.962524 57.2468189,20.4070071 56.6977514,20.7861252 C56.148684,21.1652432 55.5734705,21.4528499 54.9721109,21.6750915 C54.3707513,21.8842601 53.7824647,22.0019174 53.2203242,22.0019174 C52.3313579,22.0019174 51.5208297,21.8319679 50.7625937,21.492069 C50.0043577,21.1521701 49.3376329,20.6684678 48.7624194,20.0278891 C48.1741328,19.4003835 47.7296496,18.6682935 47.4158968,17.8577654 C47.102144,17.0472372 46.9452676,16.1844169 46.9452676,15.2954506 C46.9452676,14.4064842 47.0890709,13.6090291 47.3636047,12.7854279 C47.6381384,11.9748998 48.0434025,11.2428098 48.5793969,10.6022311 C49.1023183,9.96165243 49.742897,9.45180408 50.4749869,9.07268607 C51.2070769,8.69356807 52.0306781,8.51054558 52.9327174,8.51054558 C53.7040265,8.51054558 54.4884086,8.69356807 55.2727907,9.07268607 C56.0571727,9.45180408 56.7631166,9.9485794 57.3906223,10.5760851 C58.0181279,11.2035907 58.4626111,11.9095346 58.7502179,12.6808436 L58.7502179,17.8446923 L58.7502179,17.8446923 Z" id="Shape"></path>
                        <polygon id="Path" points="73.5881123 0 71.2611121 0 69.352449 3.00679798 70.8166289 3.55586543"></polygon>
                        <path d="M70.1368311,6.56266341 C68.5157748,6.56266341 67.077741,6.95485445 65.8096566,7.73923653 C64.5415723,8.52361862 63.5349486,9.56946139 62.8159317,10.8636918 C62.0969148,12.1579223 61.7308698,13.5959561 61.7308698,15.1647202 C61.7308698,16.3674394 61.9400383,17.4917204 62.3583755,18.5506362 C62.7767126,19.609552 63.3649991,20.5377375 64.1232351,21.3351926 C64.8814712,22.1457208 65.7704375,22.7732264 66.8032073,23.2307826 C67.835977,23.6883389 68.960258,23.9236535 70.1629772,23.9236535 C71.2611121,23.9236535 72.2938818,23.740631 73.2482134,23.3876591 C74.2025449,23.0346871 75.0392191,22.5248388 75.758236,21.8842601 C75.758236,21.8842601 75.771309,21.871187 75.7843821,21.858114 L75.7843821,19.2827262 L75.4444832,19.1912149 C75.0522921,20.0932543 74.3724943,20.8253443 73.3920167,21.3874847 C72.4115391,21.9496252 71.3656964,22.224159 70.2675614,22.224159 C69.1694265,22.224159 68.1889489,21.9496252 67.2738365,21.4005578 C66.3587241,20.8514903 65.6135611,20.1194004 65.0383476,19.1781419 C64.463134,18.2499564 64.1232351,17.1779676 64.0186509,15.9752484 L75.771309,15.9752484 L75.771309,14.3934112 L63.9532857,14.3934112 C64.0447969,13.203765 64.3716228,12.1317762 64.9337633,11.2035907 C65.5089768,10.2754053 66.2410668,9.55638836 67.1431062,9.03346697 C68.0451455,8.51054558 69.0517692,8.24908489 70.1499041,8.24908489 C71.248039,8.24908489 72.2546627,8.51054558 73.1697751,9.03346697 C74.0848876,9.55638836 74.8300505,10.2754053 75.4052641,11.1905177 C75.5359944,11.4127593 75.6536517,11.6350009 75.771309,11.8703155 L75.771309,8.75893324 C75.379118,8.37981523 74.9477079,8.0268433 74.4770786,7.7261635 C73.2351403,6.92870838 71.7840335,6.53651734 70.1237581,6.53651734 L70.1368311,6.56266341 Z" id="Path"></path>
                        <path d="M101.302946,8.54976469 C100.897682,7.92225902 100.37476,7.4254837 99.7211086,7.0855848 C99.0674569,6.7456859 98.2569287,6.57573645 97.3156702,6.57573645 C95.9299285,6.57573645 94.7010633,6.94178142 93.6160014,7.67387136 C92.5309395,8.4059613 91.589681,9.47795015 90.818372,10.8898379 C90.6222765,9.6086805 90.0993551,8.56283772 89.2365348,7.7653826 C88.3737145,6.96792749 87.2363605,6.57573645 85.8375458,6.57573645 C84.438731,6.57573645 83.2490849,6.92870838 82.1378769,7.63465226 C81.026669,8.34059613 80.1115566,9.3472198 79.4056127,10.6545233 L79.4056127,6.82412411 L77.4054384,6.82412411 L77.4054384,23.6099006 L79.6017082,23.6099006 L79.6017082,13.3606415 C80.0069723,11.9226076 80.7259892,10.7721806 81.7326129,9.89628726 C82.7523096,9.02039393 83.8765906,8.57591075 85.1316019,8.57591075 C86.3866132,8.57591075 87.3017256,9.03346697 87.9161583,9.93550636 C88.5175179,10.8506188 88.8181977,12.2886526 88.8181977,14.2496078 L88.8181977,23.5968276 L91.0144675,23.5968276 L91.0144675,13.3867875 C91.4197316,11.9748998 92.1256754,10.8113997 93.1322991,9.92243333 C94.1389228,9.02039393 95.2762768,8.57591075 96.5443612,8.57591075 C97.8124455,8.57591075 98.7014119,9.03346697 99.3289176,9.96165243 C99.9564232,10.8767649 100.270176,12.3147987 100.270176,14.2626808 L100.270176,23.6099006 L102.466446,23.6099006 L102.466446,13.8051246 C102.466446,12.7069897 102.374935,11.7265121 102.191912,10.8375458 C102.00889,9.9485794 101.721283,9.19034339 101.316019,8.54976469 L101.302946,8.54976469 Z" id="Path"></path>
                        <path d="M118.716228,21.5966533 C118.03643,21.858114 117.330486,21.9888443 116.598396,21.9888443 C115.474115,21.9888443 114.454419,21.6881645 113.526233,21.0737319 C112.598048,20.4592993 111.852885,19.6487711 111.290744,18.6160014 C110.728604,17.5832317 110.45407,16.4458776 110.45407,15.1777933 C110.45407,13.9097089 110.728604,12.7462088 111.277671,11.7395851 C111.826739,10.7329615 112.571902,9.93550636 113.487014,9.36029284 C114.4152,8.78507931 115.434896,8.49747255 116.559177,8.49747255 C117.591947,8.49747255 118.533206,8.74586021 119.382953,9.22956249 C119.709779,9.41258497 119.997385,9.62175353 120.258846,9.87014119 C120.624891,9.25570856 121.043228,8.68049503 121.52693,8.14450061 C121.304689,7.96147812 121.069374,7.80460171 120.820987,7.64772529 C119.618267,6.92870838 118.219453,6.56266341 116.650689,6.56266341 C114.990413,6.56266341 113.526233,6.95485445 112.258149,7.7261635 C110.990064,8.49747255 109.996514,9.54331532 109.277497,10.8506188 C108.571553,12.1579223 108.205508,13.6090291 108.205508,15.1908663 C108.205508,16.3674394 108.414677,17.4786474 108.833014,18.5375632 C109.251351,19.583406 109.85271,20.5246645 110.610946,21.3351926 C111.369182,22.1457208 112.271222,22.7862995 113.290919,23.2438557 C114.310615,23.7014119 115.434896,23.9367265 116.676835,23.9367265 C117.748823,23.9367265 118.755447,23.753704 119.696706,23.4007321 C120.376503,23.1392714 120.977863,22.7862995 121.52693,22.3810354 C121.056301,21.858114 120.637964,21.2959735 120.284992,20.6946139 C119.814363,21.0737319 119.291442,21.3874847 118.690082,21.6097263 L118.716228,21.5966533 Z" id="Path"></path>
                        <path d="M149.241764,16.6027541 C148.718843,16.0406136 147.986753,15.5961304 147.045494,15.2431584 C146.091163,14.8901865 144.993028,14.5372146 143.71187,14.1973157 C142.822904,13.935855 142.077741,13.7005404 141.476381,13.4782988 C140.875022,13.2560572 140.417466,12.9684504 140.116786,12.6416245 C139.816106,12.3147987 139.65923,11.8441694 139.65923,11.2428098 C139.65923,10.5107199 139.855325,9.93550636 140.260589,9.53024229 C140.665853,9.11190518 141.175702,8.81122538 141.790134,8.62820289 C142.41764,8.44518041 143.071292,8.35366917 143.764162,8.35366917 C144.783859,8.35366917 145.698972,8.52361862 146.522573,8.85044448 C147.346174,9.19034339 148.065191,9.70019174 148.66655,10.3799895 L149.738539,8.88966359 C149.111034,8.15757364 148.300505,7.58236012 147.320028,7.17709604 C146.326477,6.77183197 145.189123,6.56266341 143.894893,6.56266341 C142.705247,6.56266341 141.633258,6.7456859 140.678926,7.1248039 C139.724595,7.50392191 138.966359,8.05298937 138.417291,8.75893324 C138.038173,9.25570856 137.802859,9.83092208 137.685201,10.4976469 C137.815932,10.7591075 137.946662,11.0336413 138.051246,11.308175 C138.404218,12.2102144 138.62646,13.1645459 138.717971,14.1711696 C139.05787,14.4718494 139.463134,14.7333101 139.959909,14.9555517 C140.744291,15.3085236 141.724769,15.6484225 142.888269,15.9621754 C143.921039,16.223636 144.810005,16.4589507 145.555168,16.6811923 C146.300331,16.9034339 146.875545,17.1910406 147.267736,17.5440126 C147.673,17.8969845 147.869095,18.4068328 147.869095,19.0735576 C147.869095,20.0540352 147.463831,20.8122712 146.64023,21.3351926 C145.816629,21.858114 144.757713,22.1195747 143.437337,22.1195747 C142.365348,22.1195747 141.345651,21.9234792 140.378246,21.5182151 C139.48928,21.1521701 138.613387,20.5638836 137.750566,19.7925745 C137.489106,20.341642 137.188426,20.8645634 136.835454,21.3613387 C137.645982,22.1849399 138.600314,22.7993725 139.685376,23.2177096 C140.875022,23.6752658 142.156179,23.8975074 143.528848,23.8975074 C145.463657,23.8975074 147.032421,23.4530242 148.222067,22.5771309 C149.411713,21.7012376 150,20.4723723 150,18.9166812 C150,17.9100575 149.738539,17.1256754 149.228691,16.576608 L149.241764,16.6027541 Z" id="Path"></path>
                        <path d="M136.547847,11.9226076 C136.142583,10.8767649 135.554297,9.96165243 134.796061,9.16419732 C134.037825,8.3667422 133.161931,7.7261635 132.142235,7.26860729 C131.122538,6.81105107 130.024403,6.57573645 128.808611,6.57573645 C127.592819,6.57573645 126.481611,6.81105107 125.461914,7.26860729 C124.442217,7.7261635 123.553251,8.3667422 122.795015,9.16419732 C122.036779,9.97472547 121.461565,10.8898379 121.043228,11.9226076 C120.637964,12.9684504 120.428796,14.0796584 120.428796,15.2823775 C120.428796,16.4850967 120.637964,17.5440126 121.043228,18.5767823 C121.448492,19.6226251 122.023706,20.5377375 122.768869,21.3482656 C123.514032,22.1587938 124.389925,22.7862995 125.422695,23.2438557 C126.442391,23.7014119 127.566672,23.9367265 128.808611,23.9367265 C130.050549,23.9367265 131.135611,23.7014119 132.155308,23.2438557 C133.175004,22.7862995 134.063971,22.1457208 134.809134,21.3482656 C135.554297,20.5508105 136.12951,19.6226251 136.534774,18.5767823 C136.940038,17.5440126 137.149207,16.4328046 137.149207,15.2823775 C137.149207,14.1319505 136.940038,12.9684504 136.534774,11.9226076 L136.547847,11.9226076 Z M134.090117,18.6421475 C133.527976,19.6749172 132.782813,20.4985184 131.854628,21.099878 C130.926442,21.7012376 129.906746,22.0019174 128.782465,22.0019174 C127.658184,22.0019174 126.638487,21.7012376 125.710302,21.112951 C124.782116,20.5246645 124.050026,19.7272093 123.500959,18.7075126 C122.951891,17.6878159 122.677358,16.5635349 122.677358,15.3215967 C122.677358,14.0796584 122.951891,12.9161583 123.500959,11.8964616 C124.050026,10.8767649 124.795189,10.0662367 125.710302,9.43873104 C126.638487,8.82429841 127.658184,8.51054558 128.782465,8.51054558 C129.906746,8.51054558 130.926442,8.81122538 131.854628,9.41258497 C132.782813,10.0139446 133.527976,10.8244727 134.090117,11.8572425 C134.652257,12.8900122 134.926791,14.0142932 134.926791,15.2300854 C134.926791,16.4458776 134.652257,17.6093777 134.090117,18.6552205 L134.090117,18.6421475 Z" id="Shape"></path>
                    </g>
                    <g transform="translate(0.013073, 0.000000)">
                        <path d="M13.962001,0.0392191041 C13.8443437,0.0130730347 13.7136134,0 13.56981,0 L12.8769392,0 C11.5565627,0.0261460694 10.3015513,0.457556214 9.09883214,1.29423043 C7.89611295,2.13090465 6.91563535,3.29440474 6.15739934,4.77165766 L6.15739934,0.575213526 L0,0.575213526 L0,22.3418163 L6.70646679,22.3418163 L6.70646679,9.12497821 C7.29475336,8.11835454 8.24908489,7.36011853 9.55638836,6.83719714 C10.170821,6.58880948 10.8244727,6.41886003 11.5173436,6.28812968 C11.700366,5.84364651 11.8964616,5.39916333 12.1317762,4.98082622 C12.6416245,4.05264075 13.2560572,3.21596653 13.962001,2.45773052 L13.962001,0.0392191041 Z" id="Path"></path>
                        <path d="M29.2705247,15.3085236 C28.9306258,16.1190518 28.3292662,16.7596305 27.4402998,17.2433328 C26.5644065,17.713962 25.610075,17.9623497 24.6034513,17.9623497 C23.7929231,17.9623497 23.0216141,17.7924002 22.3025972,17.4525013 C21.5705072,17.1126024 20.9822207,16.6158271 20.5246645,15.9621754 C20.0671082,15.3085236 19.7925745,14.5110685 19.7010633,13.556737 L33.9768172,13.556737 C33.8853059,12.8769392 33.8199407,12.1971414 33.8199407,11.5042705 C33.8199407,9.6478996 34.1859857,7.88303992 34.8919296,6.22276451 C34.8396374,6.13125327 34.8134914,6.03974203 34.7611992,5.94823078 C33.8330138,4.24873627 32.4995642,2.88914067 30.7608506,1.84329789 C29.009064,0.797455116 26.8912324,0.274533728 24.4073558,0.274533728 C21.9234792,0.274533728 19.7925745,0.797455116 18.0277148,1.85637093 C16.2628552,2.91528674 14.9163326,4.30102841 13.9750741,6.01359596 C13.0338156,7.7261635 12.5762594,9.63482656 12.5762594,11.7134391 C12.5762594,13.177619 12.8377201,14.5764337 13.3737145,15.9229562 C13.9097089,17.2694788 14.681018,18.4460519 15.7007147,19.4657486 C16.7204114,20.4854454 17.9623497,21.2959735 19.4134565,21.8973331 C20.8645634,22.4856197 22.5379118,22.7862995 24.4073558,22.7862995 C26.0807042,22.7862995 27.6102493,22.5379118 28.9959909,22.0280634 C30.3817326,21.5312881 31.5844518,20.8384173 32.6041485,19.9494509 C33.6107722,19.0866306 34.3820812,18.080007 34.9442217,16.955726 C34.9442217,16.9295799 34.9180756,16.9034339 34.9180756,16.8903608 L29.2705247,15.3085236 Z M20.341642,7.13787694 C20.7599791,6.4842252 21.3090465,5.97437685 22.0019174,5.62140492 C22.6817152,5.25535994 23.4660973,5.08541049 24.3289176,5.08541049 C25.1917378,5.08541049 25.9369008,5.26843298 26.6297717,5.62140492 C27.3226425,5.98744989 27.884783,6.4842252 28.3031201,7.13787694 C28.7214572,7.79152867 28.9829179,8.56283772 29.1005752,9.43873104 L19.5311138,9.43873104 C19.6487711,8.56283772 19.9102318,7.79152867 20.3285689,7.13787694 L20.341642,7.13787694 Z" id="Shape"></path>
                        <path d="M51.5600488,14.9294056 C51.3378072,15.3477427 51.0240544,15.7268607 50.6187903,16.0667596 C50.2135262,16.4066585 49.7690431,16.6550462 49.2722677,16.8380687 C48.7885655,17.0210912 48.252571,17.1126024 47.7035036,17.1126024 C46.7753181,17.1126024 45.9517169,16.8772878 45.2327,16.3935855 C44.5006101,15.9229562 43.9123235,15.2562315 43.4678403,14.4195573 C43.0233572,13.582883 42.8011156,12.6024054 42.8011156,11.4911975 C42.8011156,10.3799895 43.0233572,9.37336587 43.4547673,8.56283772 C43.8861774,7.75230957 44.474464,7.11173087 45.219627,6.65417466 C45.96479,6.19661844 46.7883911,5.96130382 47.7165766,5.96130382 C48.5271048,5.96130382 49.2591947,6.1443263 49.9128464,6.51037127 C50.5664982,6.87641625 51.1024926,7.3862646 51.5339027,8.0660624 L54.6191389,7.13787694 L54.6191389,2.20934286 C54.4622625,2.10475858 54.3184591,1.98710127 54.1485097,1.88251699 C52.396723,0.810528151 50.2658184,0.261460694 47.7557957,0.261460694 C45.2457731,0.261460694 43.1410145,0.784382081 41.3761548,1.83022486 C39.6112951,2.87606763 38.2647725,4.24873627 37.323514,5.96130382 C36.3822555,7.67387136 35.9246993,9.51716925 35.9246993,11.5042705 C35.9246993,13.0207425 36.18616,14.4587764 36.7221544,15.8052989 C37.2581489,17.1518215 38.0294579,18.3545407 39.0491546,19.4003835 C40.0688513,20.4462263 41.3107896,21.2698274 42.7618965,21.8842601 C44.2130033,22.4856197 45.8863518,22.7993725 47.7557957,22.7993725 C49.4552902,22.7993725 50.9848353,22.5509848 52.3313579,22.0411365 C53.6125153,21.5574342 54.7367962,20.8907094 55.6911278,20.0671082 C55.1551333,18.8774621 54.8283075,17.4917204 54.6975771,15.9229562 L51.5600488,14.9555517 L51.5600488,14.9294056 Z" id="Path"></path>
                        <path d="M71.3003312,14.0273662 C70.8819941,14.7594562 70.4113648,15.3608158 69.8753704,15.818372 C69.339376,16.2759282 68.8033816,16.6158271 68.2412411,16.8119226 C67.6791006,17.0210912 67.090814,17.1126024 66.4763814,17.1126024 C65.4959038,17.1126024 64.7376678,16.7596305 64.2147464,16.0536866 C63.678752,15.3477427 63.4172913,14.3411191 63.4172913,13.0207425 L63.4172913,0.588286561 L56.7108245,0.588286561 L56.7108245,14.5241415 C56.7108245,17.2041136 57.299111,19.2565801 58.4756842,20.6684678 C59.6522573,22.0803556 61.3517518,22.7862995 63.5872407,22.7862995 C65.4305386,22.7862995 67.103887,22.4464006 68.594213,21.7666028 C70.084539,21.086805 71.3395503,20.0278891 72.346174,18.5898553 L72.4769043,19.9102318 C72.6468538,20.7991982 73.0782639,21.478996 73.7711347,21.9626983 C74.4640056,22.4464006 75.4052641,22.6947882 76.5818372,22.6947882 C76.9478822,22.6947882 77.3531462,22.6686421 77.8237755,22.61635 C77.8629946,22.61635 77.9022137,22.61635 77.9414328,22.603277 L77.9414328,0.601359596 L71.3003312,0.601359596 L71.3003312,14.0404393 L71.3003312,14.0273662 Z" id="Path"></path>
                        <path d="M94.0081924,1.47725292 L94.0081924,0.0392191041 C93.8905351,0.0130730347 93.7598048,0 93.6160014,0 L92.9231306,0 C91.6027541,0.0261460694 90.3477427,0.457556214 89.1450235,1.29423043 C87.9423043,2.13090465 86.9618267,3.29440474 86.2035907,4.77165766 L86.2035907,0.575213526 L80.0331184,0.575213526 L80.0331184,22.7601534 L81.7064668,22.7601534 C84.4910232,22.7601534 86.7526582,20.4985184 86.7526582,17.713962 L86.7526582,9.12497821 C87.3409447,8.11835454 88.2952763,7.36011853 89.6025797,6.83719714 C90.2823775,6.56266341 91.0013945,6.37964093 91.7727035,6.24891058 C91.942653,4.87624194 92.4132822,3.60815757 93.1584452,2.51002266 C93.4068328,2.14397769 93.6944396,1.79100575 94.0081924,1.46417988 L94.0081924,1.47725292 Z" id="Path"></path>
                        <path d="M108.113997,11.5304166 C108.113997,11.2558829 108.140143,10.9944222 108.153216,10.7198884 C108.100924,10.6937424 108.061705,10.6675963 108.009413,10.6414502 C106.806693,10.1054558 105.303294,9.58253443 103.47307,9.05961304 C102.688687,8.81122538 102.035036,8.60205682 101.525187,8.41903434 C101.015339,8.23601185 100.636221,8.0268433 100.387833,7.77845564 C100.152519,7.53006798 100.034861,7.20324211 100.034861,6.784905 C100.034861,6.36656789 100.152519,6.03974203 100.387833,5.77828133 C100.623148,5.51682064 100.936901,5.33379815 101.329092,5.21614084 C101.721283,5.11155656 102.152693,5.04619139 102.623322,5.04619139 C103.551508,5.04619139 104.492766,5.24228691 105.473244,5.63447795 C106.414502,6.01359596 107.486491,6.61495555 108.68921,7.43855674 C108.793795,7.11173087 108.885306,6.784905 109.016036,6.45807914 C109.499739,5.20306781 110.179536,4.03956772 111.016211,2.99372494 C109.878857,2.05246645 108.663064,1.35959561 107.381907,0.928185463 C105.943873,0.457556214 104.46662,0.209168555 102.950148,0.209168555 C101.054558,0.209168555 99.4073558,0.509848353 98.0477602,1.12428098 C96.6750915,1.72564058 95.6161757,2.57538783 94.8840858,3.66044971 C94.1389228,4.74551159 93.7728778,6.02666899 93.7728778,7.47777584 C93.7728778,8.69356807 94.0474115,9.67404567 94.609552,10.4322817 C95.1716925,11.1905177 96.0083667,11.8310964 97.1195747,12.3540178 C98.2438557,12.8769392 99.6295974,13.4129336 101.316019,13.962001 C102.152693,14.1842426 102.858637,14.3934112 103.43385,14.5764337 C104.009064,14.7725292 104.427401,14.9816978 104.715008,15.2170124 C104.989542,15.452327 105.133345,15.7791529 105.133345,16.1844169 C105.133345,16.7334844 104.89803,17.1518215 104.414328,17.4132822 C103.943699,17.6747429 103.263901,17.8054732 102.401081,17.8054732 C101.2768,17.8054732 100.087154,17.5570856 98.8190692,17.0472372 C97.5509848,16.5373889 96.2436814,15.8052989 94.8971588,14.8248213 L92.5832317,19.0604846 C93.8120969,20.2632038 95.3285689,21.1783162 97.1195747,21.7927488 C98.9105804,22.4071815 100.740805,22.7209343 102.610249,22.7209343 C105.381733,22.7209343 107.564929,22.0934286 109.172913,20.8514903 C109.748126,20.4070071 110.179536,19.8840858 110.545581,19.3219453 C109.918076,18.4460519 109.395154,17.5047934 109.002963,16.4850967 C108.401604,14.9032595 108.087851,13.2168381 108.087851,11.4781245 L108.113997,11.5304166 Z" id="Path"></path>
                        <path d="M133.789437,11.5304166 C133.789437,10.0139446 133.527976,8.57591075 132.991982,7.22938818 C132.455987,5.88286561 131.697751,4.68014642 130.691128,3.63430364 C129.684504,2.58846087 128.455639,1.76485968 127.004532,1.15042705 C125.553425,0.549067457 123.880077,0.235314624 122.010633,0.235314624 C120.141189,0.235314624 118.46784,0.535994422 117.00366,1.15042705 C115.539481,1.75178665 114.297542,2.58846087 113.290919,3.63430364 C112.284295,4.68014642 111.526059,5.88286561 111.003138,7.22938818 C110.480216,8.57591075 110.231828,10.0139446 110.231828,11.5304166 C110.231828,13.0468886 110.493289,14.4326303 111.003138,15.7922259 C111.526059,17.1387485 112.284295,18.3414677 113.290919,19.3873104 C114.297542,20.4331532 115.539481,21.2567544 117.00366,21.871187 C118.46784,22.4725466 120.141189,22.7862995 122.010633,22.7862995 C123.880077,22.7862995 125.553425,22.4856197 127.004532,21.871187 C128.455639,21.2698274 129.684504,20.4331532 130.691128,19.3873104 C131.697751,18.3414677 132.46906,17.1387485 132.991982,15.7922259 C133.527976,14.4457033 133.789437,13.0207425 133.789437,11.5304166 Z M126.233223,14.4195573 C125.814886,15.2562315 125.226599,15.9229562 124.494509,16.3935855 C123.749346,16.8642147 122.925745,17.1126024 121.99756,17.1126024 C121.069374,17.1126024 120.206554,16.8772878 119.487537,16.4197316 C118.755447,15.9621754 118.180234,15.3085236 117.748823,14.4718494 C117.317413,13.6351752 117.095172,12.6546976 117.095172,11.5434896 C117.095172,10.4322817 117.317413,9.45180408 117.748823,8.61512986 C118.180234,7.77845564 118.755447,7.1248039 119.487537,6.65417466 C120.219627,6.19661844 121.056301,5.96130382 121.99756,5.96130382 C122.938818,5.96130382 123.749346,6.19661844 124.494509,6.65417466 C125.239672,7.11173087 125.814886,7.7653826 126.233223,8.61512986 C126.65156,9.45180408 126.860729,10.4322817 126.860729,11.5434896 C126.860729,12.6546976 126.65156,13.5959561 126.233223,14.4326303 L126.233223,14.4195573 Z" id="Shape"></path>
                        <path d="M147.489977,11.2297368 C147.489977,11.2297368 147.476904,11.2297368 147.463831,11.2166638 C147.137005,11.0205682 146.784033,10.8244727 146.391842,10.6545233 C145.189123,10.1185288 143.685724,9.59560746 141.855499,9.07268607 C141.071117,8.82429841 140.417466,8.61512986 139.907617,8.43210737 C139.829179,8.4059613 139.776887,8.3667422 139.711522,8.34059613 L139.711522,8.34059613 C139.306258,8.18371971 138.979432,8.00069723 138.770263,7.79152867 C138.534949,7.54314101 138.417291,7.21631515 138.417291,6.79797804 C138.417291,6.37964093 138.534949,6.05281506 138.770263,5.79135437 C139.005578,5.52989367 139.319331,5.34687119 139.711522,5.24228691 L139.711522,5.24228691 C139.711522,5.24228691 139.711522,5.24228691 139.724595,5.24228691 C140.116786,5.13770263 140.548196,5.07233746 141.018825,5.07233746 C141.933938,5.07233746 142.888269,5.26843298 143.868747,5.66062402 C144.849224,6.05281506 145.960432,6.68032073 147.228517,7.54314101 L147.228517,7.54314101 C147.228517,7.54314101 147.228517,7.54314101 147.228517,7.54314101 L149.830051,3.34669688 C148.575039,2.2224159 147.228517,1.43803382 145.77741,0.954331532 C144.339376,0.483702283 142.862123,0.235314624 141.345651,0.235314624 C141.345651,0.235314624 141.345651,0.235314624 141.345651,0.235314624 C141.345651,0.235314624 141.345651,0.235314624 141.345651,0.235314624 C139.450061,0.235314624 137.802859,0.535994422 136.443263,1.15042705 C135.122887,1.73871361 134.090117,2.54924176 133.358027,3.59508454 C133.998606,4.4840509 134.5346,5.43838243 134.939864,6.45807914 C135.56737,8.05298937 135.881123,9.75248388 135.881123,11.5304166 C135.881123,11.8703155 135.854976,12.2102144 135.82883,12.5370403 C136.887746,13.0207425 138.181977,13.5044448 139.711522,14.0012201 C140.548196,14.2234617 141.25414,14.4326303 141.829353,14.6156528 C142.404567,14.8117483 142.822904,15.0209169 143.110511,15.2562315 C143.385044,15.4915461 143.528848,15.818372 143.528848,16.223636 C143.528848,16.7727035 143.293533,17.1910406 142.809831,17.4525013 C142.339202,17.713962 141.659404,17.8446923 140.796584,17.8446923 C140.443612,17.8446923 140.064494,17.8054732 139.698449,17.7531811 L139.698449,17.7531811 C138.900994,17.6485968 138.077392,17.4263552 137.214572,17.0864563 C136.521701,16.8119226 135.815757,16.4589507 135.09674,16.0406136 C135.044448,16.19749 134.992156,16.3674394 134.926791,16.5243158 C134.364651,17.9362036 133.567195,19.217361 132.573645,20.354715 C133.449538,20.9430016 134.430016,21.4397769 135.515078,21.8188949 C137.306083,22.4333275 139.136308,22.7470804 141.005752,22.7470804 C141.005752,22.7470804 141.005752,22.7470804 141.005752,22.7470804 C141.005752,22.7470804 141.005752,22.7470804 141.005752,22.7470804 C141.018825,22.7470804 141.031898,22.7470804 141.058044,22.7470804 C141.659404,22.7470804 142.221544,22.7078613 142.770612,22.6424961 C143.084365,22.603277 143.385044,22.5509848 143.672651,22.4856197 C143.868747,22.4464006 144.077915,22.4071815 144.274011,22.3679623 C144.653129,22.2764511 145.006101,22.1587938 145.359073,22.0411365 C145.424438,22.0149904 145.489803,21.9888443 145.555168,21.9626983 C146.300331,21.6750915 146.993202,21.3351926 147.581489,20.8776364 C149.189472,19.6226251 149.986927,17.9100575 149.986927,15.7137877 C149.986927,14.4195573 149.686247,13.3867875 149.084888,12.6024054 C148.679623,12.0794841 148.143629,11.6219278 147.476904,11.2035907 L147.489977,11.2297368 Z" id="Path"></path>
                    </g>
                </g>
                <rect id="Rectangle" fill="url(#linearGradient-1)" x="42.3304863" y="0" width="65.3651734" height="65.3651734" rx="6.25"></rect>
                <path d="M107.69566,37.7418511 L88.8312707,37.7418511 L106.06153,3.28133171 C104.571204,1.29423043 102.204985,0 99.5250131,0 L58.6717797,0 C67.6921736,0 75.013073,7.32089942 75.013073,16.3412934 L75.013073,16.3412934 C75.013073,25.3616873 67.6921736,32.6825867 58.6717797,32.6825867 L58.6717797,32.6825867 L75.013073,65.3651734 L85.563012,44.2783685 L107.69566,44.2783685 L107.69566,37.7418511 Z" id="Path" fill="#23294C"></path>
            </g>
        </g>
    </g>
</svg>